HIERARCHY
ROOT Hips
{
	OFFSET 0.00000 0.00000 0.00000
	CHANNELS 6 Xposition Yposition Zposition Yrotation Zrotation Xrotation 
	JOINT Lumbar
	{
		OFFSET 0 0 0
		CHANNELS 3 Zrotation Xrotation Yrotation
		JOINT Neck
		{
			OFFSET 0.00 0.2701 0.00
			CHANNELS 3 Zrotation Xrotation Yrotation
			End Site
			{
				OFFSET 0.00 0.1379 0.00
			}
		}
		JOINT RightShoulder
		{
			OFFSET 0.0119 0.2289 0.1181
			CHANNELS 3 Zrotation Xrotation Yrotation
			JOINT RightElbow
			{
				OFFSET 0.00 -0.1475 0.00
				CHANNELS 2 Zrotation Yrotation
				JOINT RightWrist
				{
					OFFSET 0.00 -0.1605 0.00
					CHANNELS 2 Zrotation Xrotation
					End Site
					{
						OFFSET 0.0040 -0.1068 0.0006
					}
				}
			}
		}
		JOINT LeftShoulder
		{
			OFFSET 0.0119 0.2289 -0.1181
			CHANNELS 3 Zrotation Xrotation Yrotation
			JOINT LeftElbow
			{
				OFFSET 0.00 -0.1475 0.00
				CHANNELS 2 Zrotation Yrotation
				JOINT LeftWrist
				{
					OFFSET 0.00 -0.1605 0.00
					CHANNELS 2 Zrotation Xrotation
					End Site
					{
						OFFSET 0.0040 -0.1068 -0.0006
					}
				}
			}
		}
	}
	JOINT RightHip
	{
		OFFSET 0.0316 -0.0424 0.0458
		CHANNELS 3 Zrotation Xrotation Yrotation
		JOINT RightKnee
		{
			OFFSET 0.00 -0.2438 0.00
			CHANNELS 1 Zrotation
			JOINT RightAnkle
			{
				OFFSET 0.00 -0.2449 0.00
				CHANNELS 3 Zrotation Xrotation Yrotation
				End Site
				{
					OFFSET 0.1237 -0.0542 0.0051
				}
			}
		}
	}
	JOINT LeftHip
	{
		OFFSET 0.0316 -0.0424 -0.0458
		CHANNELS 3 Zrotation Xrotation Yrotation
		JOINT LeftKnee
		{
			OFFSET 0.00 -0.2438 0.00
			CHANNELS 1 Zrotation
			JOINT LeftAnkle
			{
				OFFSET 0.00 -0.2449 0.00
				CHANNELS 3 Zrotation Xrotation Yrotation
				End Site
				{
					OFFSET 0.1237 -0.0542 -0.0051
				}
			}
		}
	}
}
MOTION
Frames: 26
Frame Time: 0.02
-0 0.57926 -0 178.99859 0 2.26565 7.3246 1.0693 -4.42089 -26.76214 4.04452 2.54858 -0.64839 -20.80209 -1.21529 106.99683 116.90386 -31.90302 -8.08185 19.99099 4.31534 12.36341 8.85599 -78.13693 -4.68998 0.22529 5.91104 3.00229 20.92841 -22.71289 10.81869 -8.34559 -11.28757 2.97082 -2.39746 -8.93883 -19.27202 9.2821 7.51762 12.56011
0.00072 0.57925 0.00071 178.51201 0 2.27535 7.13469 0.91322 -4.52523 -26.6815 4.47927 3.03806 -0.3509 -21.10253 -0.71558 107.424 119.94525 -37.89979 -8.30231 19.88874 3.66512 12.62459 8.68935 -78.00326 -4.58906 0.18202 6.08343 3.02489 21.43058 -22.85807 10.75325 -8.31105 -11.34349 2.9466 -2.44481 -8.49888 -19.22639 9.28306 7.5287 12.57375
0.00143 0.57924 0.00142 178.02789 0 2.28509 6.94502 0.75793 -4.62906 -26.6009 4.91087 3.52353 -0.05732 -21.40001 -0.21814 107.85011 122.95976 -43.84379 -8.52078 19.78699 3.01999 12.88248 8.524 -77.87061 -4.48898 0.13923 6.25556 3.04702 21.92977 -23.00299 10.68827 -8.27661 -11.3984 2.92317 -2.49235 -8.06128 -19.18161 9.28401 7.53969 12.58755
0.00215 0.57922 0.00213 177.55025 0 2.29497 6.7556 0.60373 -4.73267 -26.52108 5.33597 3.99853 0.2274 -21.68888 0.27653 108.27157 125.91355 -49.66478 -8.7353 19.68662 2.38649 13.13127 8.36169 -77.74026 -4.39149 0.09803 6.4275 3.06775 22.4208 -23.14787 10.62445 -8.24245 -11.45024 2.90206 -2.54059 -7.62982 -19.1392 9.28492 7.55033 12.60172
0.00286 0.57922 0.00283 177.03991 0 2.30397 6.56631 0.44308 -4.83839 -26.43888 5.79765 4.5299 0.56372 -22.02362 0.78759 108.71242 129.20946 -56.17275 -8.97291 19.57947 1.68858 13.43008 8.18271 -77.59714 -4.28054 0.04851 6.59942 3.09625 22.95368 -23.29243 10.55442 -8.2071 -11.5189 2.86795 -2.58451 -7.16711 -19.08352 9.28605 7.56275 12.61342
0.00359 0.5792 0.00356 176.59813 0 2.3149 6.37594 0.29668 -4.93887 -26.3606 6.18005 4.94089 0.78742 -22.26088 1.26228 109.11532 131.7646 -61.19729 -9.15997 19.48637 1.12952 13.62157 8.03953 -77.48155 -4.19803 0.01656 6.77189 3.10805 23.39845 -23.43787 10.49764 -8.17409 -11.55155 2.86187 -2.63792 -6.77008 -19.05645 9.2867 7.57142 12.63068
0.00439 0.57915 0.00433 176.34968 0 2.33102 6.18481 0.18299 -5.0333 -26.29981 6.35983 5.02464 0.72128 -22.22847 1.65645 109.3864 132.38942 -62.32036 -9.22042 19.43275 0.93474 13.52118 7.99172 -77.43848 -4.19594 0.03491 6.94545 3.07413 23.59527 -23.58742 10.47695 -8.14875 -11.48503 2.93179 -2.71669 -6.5571 -19.10639 9.2859 7.56921 12.66112
0.00522 0.5791 0.00512 176.16937 0 2.34919 5.99158 0.0845 -5.12139 -26.2406 6.45775 4.98652 0.53752 -22.09892 2.01085 109.62114 132.24784 -61.9147 -9.22784 19.3921 0.88243 13.31142 7.98063 -77.42391 -4.22226 0.07085 7.12005 3.0232 23.70406 -23.73796 10.46977 -8.12555 -11.38195 3.03039 -2.8053 -6.40955 -19.18552 9.28452 7.56324 12.69746
0.00604 0.57905 0.00591 175.95505 0 2.36645 5.79806 -0.01639 -5.20653 -26.17765 6.58147 5.00019 0.3936 -22.01252 2.37075 109.89464 132.38 -62.07818 -9.25067 19.34633 0.77843 13.1487 7.95496 -77.39841 -4.23434 0.09744 7.29439 2.97979 23.85658 -23.88681 10.45664 -8.10054 -11.29547 3.11689 -2.89005 -6.23028 -19.25281 9.2836 7.55939 12.73269
0.00684 0.579 0.00668 175.75385 0 2.38337 5.61135 -0.1351 -5.31466 -26.13195 6.74925 5.02685 0.30689 -21.92532 2.78291 110.08774 132.81856 -62.75697 -9.30872 19.30155 0.62347 12.99752 7.9204 -77.36397 -4.2519 0.12916 7.46693 2.93739 23.994 -24.03981 10.44249 -8.079 -11.20945 3.19935 -2.97216 -6.0601 -19.31457 9.28227 7.55407 12.7618
0.0077 0.57894 0.0075 175.54122 0 2.40181 5.40804 -0.21457 -5.3754 -26.04505 6.81087 5.00023 0.07339 -21.82298 3.07769 110.42267 132.44703 -62.01755 -9.28262 19.25247 0.60337 12.79594 7.91309 -77.35543 -4.26498 0.15511 7.64459 2.88867 24.14115 -24.18571 10.43395 -8.05083 -11.11332 3.29714 -3.06219 -5.88569 -19.39414 9.28113 7.55058 12.80441
0.0087 0.57884 0.00848 175.28286 0 2.42126 5.17548 -0.17709 -5.28897 -25.89206 6.557 4.83217 -0.53892 -21.64889 3.05006 111.30179 129.93336 -57.57674 -9.02099 19.23386 0.96439 12.48456 7.97186 -77.40681 -4.25691 0.15426 7.82729 2.82819 24.34195 -24.30214 10.43581 -8.00397 -11.00324 3.42928 -3.17087 -5.69092 -19.52103 9.28488 7.55592 12.88846
0.00978 0.57873 0.00952 175.0104 0 2.44274 4.92322 -0.10321 -5.15796 -25.68842 6.20761 4.6185 -1.29429 -21.47286 2.90687 112.29657 126.64374 -51.78833 -8.67892 19.20205 1.44793 12.12527 8.05675 -77.48399 -4.24367 0.14815 8.01716 2.76156 24.55338 -24.41411 10.44354 -7.95097 -10.88407 3.57599 -3.28732 -5.48846 -19.66361 9.28793 7.56264 12.9848
0.01085 0.57863 0.01053 174.74242 0 2.465 4.66948 -0.05375 -5.05961 -25.47664 5.92903 4.44246 -1.98293 -21.33303 2.82225 113.14609 123.77592 -46.7252 -8.38504 19.14636 1.847 11.7868 8.12988 -77.55259 -4.23405 0.14884 8.20904 2.69687 24.75805 -24.53329 10.44929 -7.89995 -10.76481 3.71677 -3.40077 -5.28452 -19.79586 9.28865 7.56694 13.0719
0.01182 0.57852 0.01153 174.48397 0 2.47988 4.45989 0.03056 -4.91049 -25.39709 5.52959 4.19375 -2.6837 -21.04105 2.71193 114.39184 120.6078 -41.14437 -8.04267 19.21699 2.37321 11.45045 8.20409 -77.60955 -4.22018 0.1318 8.37706 2.6356 24.97276 -24.62688 10.45114 -7.84993 -10.65899 3.8559 -3.51238 -5.10314 -19.94367 9.30096 7.57894 13.17485
0.01301 0.57842 0.01256 174.20269 0 2.5109 4.15347 0.04939 -4.85436 -25.0293 5.36319 4.08349 -3.39066 -21.06637 2.62665 114.83253 117.86774 -36.32655 -7.77978 19.02153 2.66109 11.09731 8.28143 -77.69568 -4.21342 0.14987 8.59856 2.56543 25.16398 -24.77739 10.46416 -7.79945 -10.5274 4.00121 -3.62943 -4.87301 -20.06112 9.28844 7.57498 13.24736
0.01476 0.57837 0.01372 173.85199 0 2.58333 3.588 -0.1097 -5.08564 -23.88842 5.83637 4.3998 -4.08108 -21.9698 2.65285 113.07947 116.70924 -34.08923 -7.78365 18.09581 2.26849 10.73058 8.36354 -77.86301 -4.22868 0.26888 8.94682 2.47614 25.34102 -25.04557 10.49012 -7.72176 -10.29336 4.16263 -3.76059 -4.50302 -20.10172 9.21218 7.52926 13.23507
0.01672 0.57835 0.01491 173.48116 0 2.67239 2.92622 -0.33781 -5.40876 -22.46024 6.55088 4.85214 -4.76743 -23.19081 2.70612 110.49628 115.97846 -32.65149 -7.86589 16.90545 1.63117 10.34506 8.44709 -78.05735 -4.25103 0.42264 9.35138 2.37691 25.48409 -25.37839 10.52965 -7.64829 -10.03993 4.32902 -3.8967 -4.08606 -20.10906 9.11015 7.467 13.19128
0.0186 0.57831 0.01606 173.12453 0 2.75565 2.30483 -0.54268 -5.67641 -21.15296 7.17574 5.22024 -5.4599 -24.26857 2.73757 108.26235 114.91133 -30.75558 -7.8938 15.83152 1.09831 9.95509 8.52831 -78.23465 -4.26911 0.55886 9.74376 2.28038 25.6088 -25.70874 10.57434 -7.59167 -9.81786 4.49147 -4.02989 -3.69386 -20.12436 9.01681 7.41055 13.16039
0.02044 0.57827 0.01731 172.74256 0 2.83174 1.69247 -0.71371 -5.99891 -19.87247 7.72088 5.6785 -6.15796 -25.35007 2.80389 106.17264 114.39369 -29.19407 -7.99584 14.76102 0.59223 9.61889 8.61814 -78.43305 -4.29101 0.70303 10.08322 2.19347 25.87838 -25.92694 10.57343 -7.45823 -9.50118 4.6621 -4.16628 -3.28355 -20.17037 8.93599 7.3612 13.1359
0.02241 0.57823 0.01836 172.41322 0 2.92645 1.0444 -0.9699 -6.23152 -18.48396 8.48033 5.9854 -6.81826 -26.4887 2.80711 103.55631 112.87129 -27.16604 -7.9657 13.63616 -0.02172 9.16602 8.68926 -78.5935 -4.30724 0.83806 10.54189 2.08155 25.83567 -26.39212 10.66813 -7.48256 -9.37588 4.81597 -4.29697 -2.90424 -20.14438 8.82327 7.29331 13.09044
0.02478 0.57817 0.01886 172.19535 0 3.07041 0.27272 -1.46272 -6.1755 -16.73568 9.86079 5.81045 -7.5777 -27.79701 2.60382 99.93008 108.22698 -23.47023 -7.52708 12.29302 -0.93898 8.40351 8.71564 -78.64353 -4.30151 0.9476 11.35128 1.92706 24.96206 -27.53854 11.04513 -7.97019 -9.7941 4.92837 -4.41105 -2.58465 -19.92798 8.62682 7.17701 12.99496
0.02725 0.57809 0.01915 172.03801 0 3.23201 -0.52219 -2.03529 -6.02845 -14.91314 11.43199 5.48384 -8.26375 -29.13456 2.33281 95.76145 102.60099 -19.31789 -6.95571 10.92885 -1.94419 7.52322 8.7222 -78.65447 -4.29079 1.04553 12.27113 1.74404 23.77322 -28.92676 11.51387 -8.61117 -10.40341 5.0227 -4.51882 -2.30478 -19.64078 8.39989 7.04307 12.87957
0.02961 0.57802 0.01952 171.879 0 3.38451 -1.27478 -2.55988 -5.93631 -13.21163 12.85923 5.2477 -8.84609 -30.40069 2.12117 91.67665 97.59404 -15.50307 -6.46394 9.66199 -2.86769 6.69163 8.73228 -78.68214 -4.28523 1.14305 13.11837 1.5574 22.71059 -30.19664 11.92638 -9.1631 -10.91893 5.12102 -4.62958 -2.03136 -19.38486 8.18777 6.91778 12.77283
0.03227 0.57794 0.01998 171.61199 0 3.54286 -2.16568 -3.13771 -5.79421 -11.13284 14.53915 4.92769 -9.99467 -31.92569 1.82514 88.23107 91.89226 -11.16925 -5.90155 8.01684 -3.97829 5.87882 8.7634 -78.71376 -4.26733 1.26462 14.06601 1.43733 21.70944 -31.51162 12.4006 -9.79671 -11.46437 5.23657 -4.7412 -1.65326 -19.12883 7.96925 6.78842 12.66579
0.03431 0.57788 0.02018 171.5823 0 3.69212 -2.77172 -3.62103 -5.72832 -9.82442 15.73182 4.74162 -9.96199 -32.91133 1.64398 83.3595 87.37311 -7.79398 -5.44362 7.15628 -4.71386 5.00031 8.74869 -78.72924 -4.27435 1.33434 14.82522 1.17584 20.51749 -32.78029 12.76808 -10.29678 -11.99155 5.31283 -4.84797 -1.50271 -18.8601 7.75897 6.66461 12.55617
